<svg xmlns="http://www.w3.org/2000/svg" xmlns:xlink="http://www.w3.org/1999/xlink" width="389" height="303.25" viewBox="0 0 389 303.25">
  <defs>
    <linearGradient id="linear-gradient" x1="0.5" x2="0.5" y2="1" gradientUnits="objectBoundingBox">
      <stop offset="0" stop-color="#1163f4"/>
      <stop offset="1" stop-color="#489bff"/>
    </linearGradient>
  </defs>
  <g id="Group_25" data-name="Group 25" transform="translate(-1502.5 -18)">
    <text id="أكاديمية_الكفاءة" data-name="مدرسة شمس المعرفة" transform="translate(1502.5 298.25)" fill="#010b14" font-size="65" font-family="beINNewArabicFont2017-Bold, 'beIN New Arabic Font \32 017'" font-weight="700"><tspan x="0" y="0" xml:space="preserve"> الكفاءة</tspan><tspan y="0" font-family="beINNewArabicFont2017-Light, 'beIN New Arabic Font \32 017'" font-weight="300">أكاديمية</tspan></text>
    <g id="Group_24" data-name="Group 24" transform="translate(1607.799 18)">
      <path id="Path_13" data-name="Path 13" d="M24.609,59.663a29.38,29.38,0,0,0,0-45.068,23.122,23.122,0,0,0,2.124-1.165,27.886,27.886,0,1,1,0,47.4A23.123,23.123,0,0,0,24.609,59.663Z" transform="translate(102.23 24.052)" fill="url(#linear-gradient)"/>
      <path id="Path_14" data-name="Path 14" d="M41.269,60.494a29.38,29.38,0,0,0-22.534-39.03,22.975,22.975,0,0,0,1.256-2.07,27.886,27.886,0,1,1,23.7,41.048A22.99,22.99,0,0,0,41.269,60.494Z" transform="translate(77.825 5.077)" fill="url(#linear-gradient)"/>
      <path id="Path_15" data-name="Path 15" d="M51.5,56.513a29.38,29.38,0,0,0-39.03-22.534,22.857,22.857,0,0,0,.053-2.421,27.886,27.886,0,1,1,41.048,23.7A23.081,23.081,0,0,0,51.5,56.513Z" transform="translate(51.811 -2.783)" fill="url(#linear-gradient)"/>
      <path id="Path_16" data-name="Path 16" d="M56.882,48.786a29.381,29.381,0,0,0-45.069,0,23.035,23.035,0,0,0-1.165-2.124,27.886,27.886,0,1,1,47.4,0A22.873,22.873,0,0,0,56.882,48.786Z" transform="translate(26.843 2.579)" fill="url(#linear-gradient)"/>
      <path id="Path_17" data-name="Path 17" d="M57.712,39.4a29.38,29.38,0,0,0-39.03,22.534,22.977,22.977,0,0,0-2.07-1.256,27.886,27.886,0,1,1,41.048-23.7A23,23,0,0,0,57.712,39.4Z" transform="translate(7.864 19.716)" fill="url(#linear-gradient)"/>
      <path id="Path_18" data-name="Path 18" d="M53.73,30.845A29.38,29.38,0,0,0,31.2,69.875a23,23,0,0,0-2.421-.053,27.886,27.886,0,1,1,23.7-41.048A23.023,23.023,0,0,0,53.73,30.845Z" transform="translate(0 44.048)" fill="url(#linear-gradient)"/>
      <path id="Path_19" data-name="Path 19" d="M46,25.428A29.38,29.38,0,0,0,46,70.5a22.962,22.962,0,0,0-2.123,1.165,27.886,27.886,0,1,1,0-47.4A23.085,23.085,0,0,0,46,25.428Z" transform="translate(5.359 69.055)" fill="url(#linear-gradient)"/>
      <path id="Path_20" data-name="Path 20" d="M36.611,24.636a29.38,29.38,0,0,0,22.534,39.03,23.025,23.025,0,0,0-1.256,2.071,27.886,27.886,0,1,1-23.7-41.048A23.005,23.005,0,0,0,36.611,24.636Z" transform="translate(22.493 87.996)" fill="url(#linear-gradient)"/>
      <path id="Path_21" data-name="Path 21" d="M28.061,26.934A29.381,29.381,0,0,0,67.091,49.468a23.007,23.007,0,0,0-.053,2.421A27.886,27.886,0,1,1,25.99,28.19,23.058,23.058,0,0,0,28.061,26.934Z" transform="translate(46.825 97.544)" fill="url(#linear-gradient)"/>
      <path id="Path_22" data-name="Path 22" d="M22.643,27.394a29.381,29.381,0,0,0,45.069,0,22.8,22.8,0,0,0,1.165,2.123,27.886,27.886,0,1,1-47.4,0A22.8,22.8,0,0,0,22.643,27.394Z" transform="translate(71.832 99.453)" fill="url(#linear-gradient)"/>
      <path id="Path_23" data-name="Path 23" d="M21.851,44.053a29.38,29.38,0,0,0,39.03-22.534,23.061,23.061,0,0,0,2.07,1.256A27.886,27.886,0,1,1,21.9,46.475,22.864,22.864,0,0,0,21.851,44.053Z" transform="translate(90.774 75.051)" fill="url(#linear-gradient)"/>
      <path id="Path_24" data-name="Path 24" d="M44.551,33.874l-.017.029A29.315,29.315,0,0,1,24.15,48.155a23.2,23.2,0,0,1,1.256,2.07A27.89,27.89,0,1,0,69.1,16.733,27.9,27.9,0,0,1,44.551,33.874Z" transform="translate(100.321 55.167)" fill="url(#linear-gradient)"/>
    </g>
  </g>
</svg>
