<svg xmlns="http://www.w3.org/2000/svg" xmlns:xlink="http://www.w3.org/1999/xlink" width="97" height="56" viewBox="0 0 97 56">
  <defs>
    <linearGradient id="linear-gradient" x1="0.095" y1="0.029" x2="0.73" y2="0.461" gradientUnits="objectBoundingBox">
      <stop offset="0" stop-color="#c3ff35"/>
      <stop offset="1" stop-color="#c3ff35" stop-opacity="0"/>
    </linearGradient>
    <linearGradient id="linear-gradient-2" x1="0.061" y1="0.5" x2="0.957" y2="0.527" gradientUnits="objectBoundingBox">
      <stop offset="0" stop-color="#005666" stop-opacity="0"/>
      <stop offset="1" stop-color="#005666"/>
    </linearGradient>
    <linearGradient id="linear-gradient-3" x1="0.5" y1="0.378" x2="0.081" y2="0.961" gradientUnits="objectBoundingBox">
      <stop offset="0" stop-color="#00b39a" stop-opacity="0"/>
      <stop offset="1" stop-color="#00b39a"/>
    </linearGradient>
  </defs>
  <g id="logo" transform="translate(-127 -61.615)">
    <g id="أثر" transform="translate(177.93 72.173)">
      <path id="Path_14013" data-name="Path 14013" d="M78.513,18.808h.866a.532.532,0,0,0,.357-.134.422.422,0,0,0,.155-.334V17.229a.494.494,0,0,0-.512-.512h-.866a.5.5,0,0,0-.512.512V18.34a.435.435,0,0,0,.145.334.52.52,0,0,0,.367.134" transform="translate(-51.05 -9.673)" fill="#122331"/>
      <path id="Path_14014" data-name="Path 14014" d="M82.107,22.03a.438.438,0,0,0-.111-.3.4.4,0,0,0-.311-.122H80.617a.341.341,0,0,0-.278.122.467.467,0,0,0-.1.3c.015.577.026,1.111.034,1.6s.011.963.011,1.423V27.9c0,.385-.06.615-.177.69a1.878,1.878,0,0,1-.822.111H56.7V22.051a.426.426,0,0,0-.111-.3.352.352,0,0,0-.268-.124H55.228a.375.375,0,0,0-.289.124.426.426,0,0,0-.111.3V31.9a4.838,4.838,0,0,1-.112,1.168,1.158,1.158,0,0,1-.4.655,1.586,1.586,0,0,1-.756.289,8.739,8.739,0,0,1-1.2.068h-.467c-.251,0-.377.1-.377.31v.956a.355.355,0,0,0,.066.233.54.54,0,0,0,.29.123,4.608,4.608,0,0,0,.589.067c.243.014.4.021.478.021a5.783,5.783,0,0,0,2.079-.31,2.419,2.419,0,0,0,1.234-1.09,3.1,3.1,0,0,0,.334-1.044,9.048,9.048,0,0,0,.089-1.312V30.611H78.729q.377,0,.8-.011c.281-.008.555-.022.822-.045s.5-.045.712-.066a2.1,2.1,0,0,0,.489-.1.761.761,0,0,0,.367-.267,1.082,1.082,0,0,0,.144-.378,12.783,12.783,0,0,0,.077-1.423q.012-.911.012-1.978V24.264c0-.3,0-.626-.012-.967s-.017-.763-.032-1.266" transform="translate(-51.516 -9.876)" fill="#122331"/>
      <path id="Path_14015" data-name="Path 14015" d="M80.332,15.977h.823a.613.613,0,0,0,.367-.122.4.4,0,0,0,.166-.345v-1a.423.423,0,0,0-.155-.333.534.534,0,0,0-.357-.134h-.822a.527.527,0,0,0-.355.134.418.418,0,0,0-.156.333v1a.425.425,0,0,0,.144.345.519.519,0,0,0,.345.122" transform="translate(-51.018 -9.667)" fill="#122331"/>
      <path id="Path_14016" data-name="Path 14016" d="M83.332,18.674a.422.422,0,0,0,.155-.334V17.229a.482.482,0,0,0-.155-.367.511.511,0,0,0-.356-.145h-.867a.549.549,0,0,0-.367.145.465.465,0,0,0-.166.367V18.34a.409.409,0,0,0,.166.334.573.573,0,0,0,.367.134h.867a.533.533,0,0,0,.356-.134" transform="translate(-50.969 -9.673)" fill="#122331"/>
      <path id="Path_14017" data-name="Path 14017" d="M84.98,13.593h3a.705.705,0,0,0,.278-.045c.067-.029.1-.1.1-.223v-.355c0-.178-.127-.268-.378-.268h-1.49a.849.849,0,0,1-.334-.388A1.67,1.67,0,0,1,86,11.547q0-1,1.178-1c.074,0,.2,0,.378.011s.281.011.311.011c.192,0,.289-.082.289-.245v-.31c0-.119-.082-.208-.244-.268-.149-.028-.3-.052-.445-.066a3.945,3.945,0,0,0-.4-.022,2.43,2.43,0,0,0-1.546.433,1.644,1.644,0,0,0-.545,1.368,2.675,2.675,0,0,0,.089.677,1.51,1.51,0,0,0,.289.59H84.98q-.4,0-.4.221v.378q0,.268.4.268" transform="translate(-50.927 -9.658)" fill="#122331"/>
      <path id="Path_14018" data-name="Path 14018" d="M86.054,15.161a.4.4,0,0,0-.3.131.429.429,0,0,0-.122.3V29.883a.429.429,0,0,0,.122.3.4.4,0,0,0,.3.131h1.089a.361.361,0,0,0,.289-.131.448.448,0,0,0,.113-.3V15.594a.448.448,0,0,0-.113-.3.361.361,0,0,0-.289-.131Z" transform="translate(-50.913 -9.581)" fill="#122331"/>
    </g>
    <g id="athar" transform="translate(177.93 97.128)">
      <path id="Path_14019" data-name="Path 14019" d="M55.566,39.442a18.15,18.15,0,0,0-1.946.089c-.54.059-1.041.125-1.5.2-.312.044-.467.185-.467.421v.774c0,.147.041.243.123.288a.567.567,0,0,0,.277.067h.113q.666-.067,1.49-.122t1.911-.055a2.507,2.507,0,0,1,1.845.553,2.793,2.793,0,0,1,.533,1.947v.885H56.3a12.042,12.042,0,0,0-2.513.222,4.427,4.427,0,0,0-1.656.675,2.572,2.572,0,0,0-.913,1.128,4.082,4.082,0,0,0-.277,1.56v.264a4.3,4.3,0,0,0,.3,1.725,2.962,2.962,0,0,0,.8,1.107,2.866,2.866,0,0,0,1.156.586,5.578,5.578,0,0,0,1.367.165,5.125,5.125,0,0,0,1.78-.31,10.534,10.534,0,0,0,1.645-.774v.486a.456.456,0,0,0,.444.443h1.023a.429.429,0,0,0,.311-.133.423.423,0,0,0,.134-.31V43.6a3.75,3.75,0,0,0-4.336-4.159m2.379,10a8.094,8.094,0,0,1-1.512.663,4.96,4.96,0,0,1-1.49.222,2.441,2.441,0,0,1-1.512-.41,1.939,1.939,0,0,1-.534-1.6v-.265a2.84,2.84,0,0,1,.157-1.007,1.372,1.372,0,0,1,.532-.663A2.789,2.789,0,0,1,54.632,46,9.58,9.58,0,0,1,56.3,45.88h1.645Z" transform="translate(-50.942 -34.643)" fill="#122331"/>
      <path id="Path_14020" data-name="Path 14020" d="M68.271,50.571H67.026a1.369,1.369,0,0,1-.933-.247,1.689,1.689,0,0,1-.267-1.166V41.33h2.4a.426.426,0,0,0,.312-.135.433.433,0,0,0,.133-.314v-.765a.437.437,0,0,0-.133-.315.426.426,0,0,0-.312-.135h-2.4v-2.45a.381.381,0,0,0-.1-.282.316.316,0,0,0-.232-.1h-.068l-1.155.179a.42.42,0,0,0-.4.45v2.2H61.713q-.423,0-.423.406v.607c0,.239.141.374.423.4l2.157.247v7.848a4.966,4.966,0,0,0,.19,1.505,2.087,2.087,0,0,0,.556.922,1.952,1.952,0,0,0,.933.461,6.421,6.421,0,0,0,1.346.123c.208,0,.444-.011.712-.034s.511-.048.733-.078q.4-.069.4-.388v-.8c0-.213-.155-.32-.467-.32" transform="translate(-51.564 -34.913)" fill="#122331"/>
      <path id="Path_14021" data-name="Path 14021" d="M78.923,40.772a3.285,3.285,0,0,0-1.266-.85,4.6,4.6,0,0,0-1.623-.276,9.247,9.247,0,0,0-1.656.173,7.307,7.307,0,0,0-1.746.539V35.627a.476.476,0,0,0-.122-.322.385.385,0,0,0-.3-.138H71.1a.384.384,0,0,0-.3.138.472.472,0,0,0-.123.322V51.983a.472.472,0,0,0,.123.322.384.384,0,0,0,.3.138h1.09A.42.42,0,0,0,72.5,52.3a.447.447,0,0,0,.133-.322V42.06a5.875,5.875,0,0,1,.789-.288c.289-.084.575-.152.857-.206s.545-.092.789-.115.455-.035.634-.035a2.344,2.344,0,0,1,1.734.644,3.332,3.332,0,0,1,.645,2.365v7.558a.448.448,0,0,0,.134.322.418.418,0,0,0,.31.138h1.067A.415.415,0,0,0,79.9,52.3a.445.445,0,0,0,.135-.322V44.425a7.159,7.159,0,0,0-.29-2.17,3.862,3.862,0,0,0-.822-1.483" transform="translate(-51.809 -35.167)" fill="#122331"/>
      <path id="Path_14022" data-name="Path 14022" d="M87.073,39.442a18.15,18.15,0,0,0-1.946.089c-.54.059-1.041.125-1.5.2-.312.044-.467.185-.467.421v.774c0,.147.041.243.123.288a.567.567,0,0,0,.277.067h.113q.666-.067,1.49-.122t1.911-.055a2.507,2.507,0,0,1,1.845.553,2.793,2.793,0,0,1,.533,1.947v.885H87.807a12.042,12.042,0,0,0-2.513.222,4.427,4.427,0,0,0-1.656.675,2.572,2.572,0,0,0-.913,1.128,4.082,4.082,0,0,0-.277,1.56v.264a4.3,4.3,0,0,0,.3,1.725,2.962,2.962,0,0,0,.8,1.107,2.866,2.866,0,0,0,1.156.586,5.578,5.578,0,0,0,1.367.165,5.125,5.125,0,0,0,1.78-.31,10.535,10.535,0,0,0,1.645-.774v.486a.456.456,0,0,0,.444.443h1.023a.429.429,0,0,0,.311-.133.423.423,0,0,0,.134-.31V43.6a3.75,3.75,0,0,0-4.336-4.159m2.379,10a8.094,8.094,0,0,1-1.512.663,4.96,4.96,0,0,1-1.49.222,2.441,2.441,0,0,1-1.512-.41,1.939,1.939,0,0,1-.534-1.6v-.265a2.84,2.84,0,0,1,.157-1.007,1.372,1.372,0,0,1,.532-.663A2.789,2.789,0,0,1,86.139,46a9.58,9.58,0,0,1,1.668-.121h1.645Z" transform="translate(-52.515 -34.643)" fill="#122331"/>
      <path id="Path_14023" data-name="Path 14023" d="M99.291,39.442a4.924,4.924,0,0,0-1.523.249,6.272,6.272,0,0,0-1.612.84v-.477a.464.464,0,0,0-.122-.319.39.39,0,0,0-.3-.137H94.689a.389.389,0,0,0-.3.135.455.455,0,0,0-.122.314V51.471a.451.451,0,0,0,.122.314.389.389,0,0,0,.3.135h1.089a.457.457,0,0,0,.446-.447V42.105a6.673,6.673,0,0,1,1.567-.726,5.313,5.313,0,0,1,1.5-.212q.467,0,.466-.385v-.931c0-.272-.155-.409-.466-.409" transform="translate(-53.688 -34.643)" fill="#122331"/>
    </g>
    <g id="icon" transform="translate(127 61.615)">
      <path id="Path_15463" data-name="Path 15463" d="M48.268,62.839a2.8,2.8,0,0,0-2.845,3.133c0,6.636.024,19.793.024,26.543l19.7-20.325-15.07-8.9a3.258,3.258,0,0,0-1.666-.456c-.049,0-.1,0-.147,0" transform="translate(-26.417 -36.515)" fill="url(#linear-gradient)"/>
      <path id="Path_15462" data-name="Path 15462" d="M0,51.28l14.957-8.69a3.32,3.32,0,0,0,1-.907,3.247,3.247,0,0,0-.732-4.533l-.008-.006L.606,26.6Z" transform="translate(0 -15.457)" fill="url(#linear-gradient-2)"/>
      <path id="Path_15461" data-name="Path 15461" d="M45.479,0c.039,4.834,0,14.505,0,19.339a3.124,3.124,0,0,0,4.31,2.925L65.8,14.911Z" transform="translate(-26.449)" fill="url(#linear-gradient-3)"/>
    </g>
  </g>
</svg>
