<svg xmlns="http://www.w3.org/2000/svg" width="137.796" height="39.62" viewBox="0 0 137.796 39.62">
  <g id="Layer_1" data-name="Layer 1" transform="translate(-0.008 104)">
    <g id="Group_53779" data-name="Group 53779" transform="translate(0.008 -104)">
      <path id="Path_51936" data-name="Path 51936" d="M26.667,6.816l-.314,3.5a88.877,88.877,0,0,1,19.98.585c.813.112-42.257-2.5-46.117,17.263,0,0-2.27-7.268,8.177-13.175a38.626,38.626,0,0,1,10.713-3.615L21.111,0H50.417a6.791,6.791,0,0,1-2,4.817,6.791,6.791,0,0,1-4.817,2H26.662Z" transform="translate(-0.008)" fill="#2a81c4"/>
      <path id="Path_51937" data-name="Path 51937" d="M52.021,46.947H28.17a19.145,19.145,0,0,1,9.086-9.767c-.149.984-.3,1.967-.452,2.951H58.842a6.816,6.816,0,0,1-6.816,6.816Z" transform="translate(-13.197 -17.413)" fill="#fff"/>
      <path id="Path_51938" data-name="Path 51938" d="M18.379,47.549c-.138-.255-.734-.542-.957-.728a14.112,14.112,0,0,1-2.095-2.159c-2.371-3.036-3.158-6.864-.883-10.176a22.228,22.228,0,0,1,8.347-6.9,41.017,41.017,0,0,1,15.583-3.977A82.647,82.647,0,0,1,58.366,24.83s.016,0,.016.005c.011.117-10.958,0-20.693,2.494-4.1,1.047-19.252,4.923-20.671,13.632A10.468,10.468,0,0,0,18.379,47.549Z" transform="translate(-6.134 -10.975)" fill="#fff"/>
      <g id="Group_53776" data-name="Group 53776" transform="translate(56.062 0.627)">
        <path id="Path_51939" data-name="Path 51939" d="M117.111,20.777h-8.321a3.338,3.338,0,0,1-3.275-3.972L108,4a3.479,3.479,0,0,1,3.413-2.813h9.5l-.654,3.344h-7.5a1.64,1.64,0,0,0-1.606,1.324l-.67,3.488h7.528l-.654,3.344h-7.528l-.675,3.445a1.08,1.08,0,0,0,1.058,1.287h7.539l-.654,3.344Z" transform="translate(-105.454 -1.185)" fill="#fff"/>
        <path id="Path_51940" data-name="Path 51940" d="M157.337,19.033q-2.153,2.01-6.423,2.015t-5.62-2q-1.348-2-.393-6.949l2.121-10.91h3.972l-2.121,10.857q-.6,3.158.027,4.338c.415.787,1.324,1.186,2.722,1.186a4.031,4.031,0,0,0,3.158-1.2,9.192,9.192,0,0,0,1.685-4.328L158.586,1.19h3.972L160.436,12.1q-.949,4.921-3.1,6.938Z" transform="translate(-123.742 -1.185)" fill="#fff"/>
        <path id="Path_51941" data-name="Path 51941" d="M188.86,4.534l.654-3.344h16.024l-.654,3.344h-6.013l-3.158,16.242h-3.972L194.9,4.534Z" transform="translate(-144.515 -1.185)" fill="#2a81c4"/>
        <path id="Path_51942" data-name="Path 51942" d="M232.236,20.772H224.67L228.482,1.18h7.566q4.41,0,6,2.313T242.63,11q-1.037,5.224-3.5,7.5a9.787,9.787,0,0,1-6.9,2.27ZM231.8,4.53l-2.5,12.9h2.828a5.7,5.7,0,0,0,4.206-1.51,9.491,9.491,0,0,0,2.19-4.913q.678-3.453-.261-4.966c-.627-1-1.834-1.51-3.631-1.51Z" transform="translate(-161.286 -1.18)" fill="#2a81c4"/>
      </g>
      <path id="Path_51943" data-name="Path 51943" d="M103.451,42.3H184.1l-1.361,7.725H102.09Z" transform="translate(-47.816 -19.81)" fill="#fff"/>
      <g id="Group_53777" data-name="Group 53777" transform="translate(56.842 23.691)">
        <path id="Path_51944" data-name="Path 51944" d="M108.637,49.409a1.67,1.67,0,0,1-1.478-.574,2.5,2.5,0,0,1-.144-1.845,3.312,3.312,0,0,1,.861-1.845,2.4,2.4,0,0,1,1.707-.585,3.117,3.117,0,0,1,.808.1,2.233,2.233,0,0,1,.611.25l-.388.792a2.307,2.307,0,0,0-1.186-.308,1.179,1.179,0,0,0-.925.377,2.588,2.588,0,0,0-.5,1.218,1.957,1.957,0,0,0,.027,1.207.79.79,0,0,0,.782.372,2.945,2.945,0,0,0,1.3-.308l.085.792a2.918,2.918,0,0,1-.712.25,3.533,3.533,0,0,1-.845.1Z" transform="translate(-106.92 -44.56)" fill="#0255a6"/>
        <path id="Path_51945" data-name="Path 51945" d="M120.518,50.558h-.888l.654-3.355h.8l-.011.452a1.292,1.292,0,0,1,1-.505,1.462,1.462,0,0,1,.377.053l-.292.872a1.274,1.274,0,0,0-.346-.053c-.425,0-.755.314-.984.941l-.308,1.59Z" transform="translate(-112.872 -45.773)" fill="#0255a6"/>
        <path id="Path_51946" data-name="Path 51946" d="M131.738,50.608a1.558,1.558,0,0,1-1.239-.415,1.538,1.538,0,0,1-.181-1.324,2.334,2.334,0,0,1,.643-1.329,1.873,1.873,0,0,1,1.3-.42q1.483,0,1.175,1.59l-.08.425h-2.143a.587.587,0,0,0,.67.7,2.138,2.138,0,0,0,1.01-.287l-.032.771a2.1,2.1,0,0,1-1.122.287Zm.346-2.717a.706.706,0,0,0-.494.17,1.135,1.135,0,0,0-.287.537h1.26C132.653,48.125,132.493,47.891,132.084,47.891Z" transform="translate(-117.851 -45.759)" fill="#0255a6"/>
        <path id="Path_51947" data-name="Path 51947" d="M143.074,50.608a1.006,1.006,0,0,1-.776-.25.89.89,0,0,1-.117-.782c.112-.553.564-.883,1.372-.989.356-.037.633-.064.824-.074l.021-.106a.382.382,0,0,0-.069-.377.69.69,0,0,0-.457-.112,1.779,1.779,0,0,0-.468.069,2.025,2.025,0,0,0-.4.144l-.149.074-.021-.755a3.23,3.23,0,0,1,1.382-.33c.883,0,1.249.383,1.106,1.154l-.447,2.27h-.712l-.08-.308a1.429,1.429,0,0,1-1.01.372Zm.032-1.063c-.058.287.069.431.372.431a.681.681,0,0,0,.473-.191.867.867,0,0,0,.266-.468l.053-.266c-.074,0-.266.027-.569.058-.351.048-.548.2-.6.441Z" transform="translate(-123.418 -45.759)" fill="#0255a6"/>
        <path id="Path_51948" data-name="Path 51948" d="M154.53,47.111l.106-.537.558-.144.175-.93h.888l-.175.93h.792l-.138.681h-.792l-.255,1.334a.8.8,0,0,0,0,.484c.048.1.16.144.33.144a2.2,2.2,0,0,0,.478-.064l-.144.766a3.616,3.616,0,0,1-.649.074,1.111,1.111,0,0,1-.824-.266.85.85,0,0,1-.154-.782l.33-1.691h-.526Z" transform="translate(-129.217 -45)" fill="#0255a6"/>
        <path id="Path_51949" data-name="Path 51949" d="M166,50.608a1.558,1.558,0,0,1-1.239-.415,1.538,1.538,0,0,1-.181-1.324,2.335,2.335,0,0,1,.643-1.329,1.873,1.873,0,0,1,1.3-.42q1.483,0,1.175,1.59l-.08.425h-2.143a.587.587,0,0,0,.67.7,2.138,2.138,0,0,0,1.01-.287l-.032.771a2.1,2.1,0,0,1-1.122.287Zm.346-2.717a.706.706,0,0,0-.494.17,1.135,1.135,0,0,0-.287.537h1.26C166.913,48.125,166.753,47.891,166.344,47.891Z" transform="translate(-133.896 -45.759)" fill="#0255a6"/>
        <path id="Path_51950" data-name="Path 51950" d="M176.17,52.787l.17-.877h.877l-.17.877Z" transform="translate(-139.352 -48.002)" fill="#0255a6"/>
        <path id="Path_51951" data-name="Path 51951" d="M186.7,49.406h-2.01l.914-4.716h1.813a1.66,1.66,0,0,1,1.17.308,1.079,1.079,0,0,1,.165,1.026,1.225,1.225,0,0,1-.8.984.832.832,0,0,1,.537.372,1.055,1.055,0,0,1,.058.712,1.5,1.5,0,0,1-.569,1,2.222,2.222,0,0,1-1.287.308Zm-.67-2L185.8,48.6h.792a1.3,1.3,0,0,0,.7-.149.643.643,0,0,0,.292-.473.4.4,0,0,0-.112-.441,1.176,1.176,0,0,0-.649-.128Zm.372-1.914-.229,1.207h.611a1.3,1.3,0,0,0,.681-.144.642.642,0,0,0,.287-.468.436.436,0,0,0-.106-.457,1.01,1.01,0,0,0-.627-.138Z" transform="translate(-143.342 -44.621)" fill="#0255a6"/>
        <path id="Path_51952" data-name="Path 51952" d="M199.2,50.558h-.888l.654-3.355h.8l-.011.452a1.292,1.292,0,0,1,1-.505,1.462,1.462,0,0,1,.378.053l-.292.872a1.274,1.274,0,0,0-.346-.053c-.425,0-.755.314-.984.941l-.308,1.59Z" transform="translate(-149.721 -45.773)" fill="#0255a6"/>
        <path id="Path_51953" data-name="Path 51953" d="M208.83,49.406l.654-3.355h.888l-.654,3.355Zm.744-3.9.154-.813h.914l-.154.813Z" transform="translate(-154.648 -44.621)" fill="#0255a6"/>
        <path id="Path_51954" data-name="Path 51954" d="M218.76,49.474a1.065,1.065,0,0,1-.984-.415,1.915,1.915,0,0,1-.08-1.324,2.539,2.539,0,0,1,.6-1.329,1.542,1.542,0,0,1,1.148-.42.886.886,0,0,1,.845.42l.335-1.707h.888l-.914,4.716h-.782l-.027-.34a1.42,1.42,0,0,1-1.026.4Zm.17-2.483a1.545,1.545,0,0,0-.308.744,1.212,1.212,0,0,0,.021.739.5.5,0,0,0,.489.229.826.826,0,0,0,.808-.516l.165-.845a.529.529,0,0,0-.59-.585A.757.757,0,0,0,218.931,46.992Z" transform="translate(-158.767 -44.626)" fill="#0255a6"/>
        <path id="Path_51955" data-name="Path 51955" d="M231.163,51.969a1.992,1.992,0,0,1-1.223-.33l.266-.771a1.9,1.9,0,0,0,.489.234,1.78,1.78,0,0,0,.553.1.976.976,0,0,0,.7-.234,1.411,1.411,0,0,0,.351-.782l.011-.09a1.372,1.372,0,0,1-1.01.415,1.073,1.073,0,0,1-.984-.4,1.833,1.833,0,0,1-.09-1.287,2.4,2.4,0,0,1,.59-1.292,1.586,1.586,0,0,1,1.143-.4.9.9,0,0,1,.856.431l.149-.362h.8l-.6,3.078a2.205,2.205,0,0,1-.643,1.3,2.039,2.039,0,0,1-1.361.4Zm-.011-3.158a1.044,1.044,0,0,0,.032.7.517.517,0,0,0,.494.218.858.858,0,0,0,.819-.564l.133-.686a.53.53,0,0,0-.59-.59.766.766,0,0,0-.58.218,1.393,1.393,0,0,0-.3.707Z" transform="translate(-164.534 -45.759)" fill="#0255a6"/>
        <path id="Path_51956" data-name="Path 51956" d="M244.538,50.608a1.558,1.558,0,0,1-1.239-.415,1.539,1.539,0,0,1-.181-1.324,2.335,2.335,0,0,1,.643-1.329,1.872,1.872,0,0,1,1.3-.42q1.483,0,1.175,1.59l-.08.425h-2.143a.587.587,0,0,0,.67.7,2.138,2.138,0,0,0,1.01-.287l-.032.771a2.1,2.1,0,0,1-1.122.287Zm.346-2.717a.706.706,0,0,0-.494.17,1.135,1.135,0,0,0-.287.537h1.26C245.453,48.125,245.293,47.891,244.884,47.891Z" transform="translate(-170.679 -45.759)" fill="#0255a6"/>
      </g>
      <g id="Group_53778" data-name="Group 53778" transform="translate(14.696 34.516)">
        <path id="Path_51957" data-name="Path 51957" d="M30.287,68.872H27.65L28.4,64.98h2.637l-.128.665h-1.85l-.186.957h1.4l-.128.665h-1.4l-.186.941h1.85Z" transform="translate(-27.65 -64.948)" fill="#fff"/>
        <path id="Path_51958" data-name="Path 51958" d="M34.784,69.928a.848.848,0,0,1-.707-.25,1.029,1.029,0,0,1-.08-.8l.346-1.781h.734l-.319,1.616q-.1.542.319.542.447,0,.67-.654l.292-1.5h.734l-.542,2.77h-.649l-.011-.335a.97.97,0,0,1-.8.393Z" transform="translate(-30.605 -65.941)" fill="#fff"/>
        <path id="Path_51959" data-name="Path 51959" d="M40.324,69.823H39.59l.542-2.77h.659l-.011.372a1.072,1.072,0,0,1,.829-.415,1.422,1.422,0,0,1,.314.043l-.245.718a1.21,1.21,0,0,0-.287-.043c-.356,0-.622.261-.813.776l-.255,1.313Z" transform="translate(-33.242 -65.899)" fill="#fff"/>
        <path id="Path_51960" data-name="Path 51960" d="M46.045,69.526a1.547,1.547,0,0,1-1.069.346,1.088,1.088,0,0,1-.936-.34,1.384,1.384,0,0,1-.1-1.1,1.915,1.915,0,0,1,.532-1.1,1.547,1.547,0,0,1,1.069-.346,1.1,1.1,0,0,1,.936.346,1.384,1.384,0,0,1,.106,1.1,1.951,1.951,0,0,1-.537,1.1Zm-1.345-1.1a1.02,1.02,0,0,0,.016.611.393.393,0,0,0,.393.191.575.575,0,0,0,.463-.191,1.291,1.291,0,0,0,.25-.611,1.035,1.035,0,0,0-.016-.617.389.389,0,0,0-.388-.191.594.594,0,0,0-.468.191A1.29,1.29,0,0,0,44.7,68.431Z" transform="translate(-35.252 -65.889)" fill="#fff"/>
        <path id="Path_51961" data-name="Path 51961" d="M49.04,70.946l.755-3.9h.659l.011.3a1.109,1.109,0,0,1,.845-.362.886.886,0,0,1,.813.346,1.584,1.584,0,0,1,.069,1.1,2.043,2.043,0,0,1-.494,1.1,1.286,1.286,0,0,1-.946.346.773.773,0,0,1-.7-.319l-.276,1.393H49.04Zm1.287-2.839-.133.7c.021.287.191.425.505.425a.6.6,0,0,0,.479-.191,1.238,1.238,0,0,0,.255-.611.971.971,0,0,0-.021-.611.41.41,0,0,0-.4-.191.7.7,0,0,0-.681.479Z" transform="translate(-37.668 -65.889)" fill="#fff"/>
        <path id="Path_51962" data-name="Path 51962" d="M56.763,69.872a1.037,1.037,0,0,1-1.175-1.441,1.915,1.915,0,0,1,.532-1.1,1.561,1.561,0,0,1,1.074-.346c.819,0,1.143.436.968,1.313l-.064.351h-1.77c-.021.388.16.58.553.58a1.743,1.743,0,0,0,.835-.239l-.027.638a1.711,1.711,0,0,1-.925.239Zm.287-2.244a.6.6,0,0,0-.409.138.91.91,0,0,0-.234.441h1.037c.074-.388-.058-.585-.393-.585Z" transform="translate(-40.712 -65.889)" fill="#fff"/>
        <path id="Path_51963" data-name="Path 51963" d="M61.654,69.876a.826.826,0,0,1-.643-.207.728.728,0,0,1-.1-.643c.09-.457.468-.728,1.127-.819.3-.032.521-.053.681-.058l.016-.085a.323.323,0,0,0-.058-.314.56.56,0,0,0-.377-.09,1.491,1.491,0,0,0-.383.058,1.845,1.845,0,0,0-.335.117l-.122.058-.016-.622A2.647,2.647,0,0,1,62.59,67c.728,0,1.031.319.914.952l-.367,1.877h-.59l-.064-.255a1.175,1.175,0,0,1-.835.308ZM61.681,69c-.048.239.053.356.308.356a.574.574,0,0,0,.393-.16.665.665,0,0,0,.218-.388l.043-.223c-.064,0-.218.021-.468.048-.287.037-.452.16-.489.362Z" transform="translate(-43.216 -65.894)" fill="#fff"/>
        <path id="Path_51964" data-name="Path 51964" d="M66.36,69.808l.542-2.77h.649l.011.33a.938.938,0,0,1,.8-.388.855.855,0,0,1,.707.25,1.029,1.029,0,0,1,.08.8L68.8,69.808h-.734l.314-1.616a.593.593,0,0,0-.027-.415.311.311,0,0,0-.287-.128q-.455,0-.67.654l-.292,1.5h-.734Z" transform="translate(-45.779 -65.885)" fill="#fff"/>
        <path id="Path_51965" data-name="Path 51965" d="M74.93,68.872l.542-2.77h.734l-.542,2.77Zm.617-3.222.128-.67h.755l-.128.67Z" transform="translate(-49.793 -64.948)" fill="#fff"/>
        <path id="Path_51966" data-name="Path 51966" d="M77.65,69.808l.542-2.77h.649l.011.33a.938.938,0,0,1,.8-.388.855.855,0,0,1,.707.25,1.029,1.029,0,0,1,.08.8l-.346,1.781h-.734l.314-1.616a.593.593,0,0,0-.027-.415.311.311,0,0,0-.287-.128q-.455,0-.67.654l-.292,1.5h-.734Z" transform="translate(-51.067 -65.885)" fill="#fff"/>
        <path id="Path_51967" data-name="Path 51967" d="M83.35,69.653l.234-.617a1.7,1.7,0,0,0,.856.234.658.658,0,0,0,.33-.074A.285.285,0,0,0,84.913,69a.14.14,0,0,0-.048-.149.442.442,0,0,0-.181-.09c-.08-.021-.165-.043-.261-.064a1.722,1.722,0,0,1-.282-.085,1.083,1.083,0,0,1-.245-.138.491.491,0,0,1-.154-.25.773.773,0,0,1,0-.383c.106-.564.532-.845,1.265-.845a1.974,1.974,0,0,1,.468.053,2.324,2.324,0,0,1,.34.1l.106.048-.234.611a1.273,1.273,0,0,0-.75-.207c-.261,0-.4.08-.425.234a.17.17,0,0,0,.1.2,1.334,1.334,0,0,0,.33.106,2.487,2.487,0,0,1,.388.112.537.537,0,0,1,.3.266.782.782,0,0,1,.048.51c-.112.569-.537.856-1.281.856a2.606,2.606,0,0,1-.542-.053,2.388,2.388,0,0,1-.377-.106l-.117-.058Z" transform="translate(-53.736 -65.894)" fill="#fff"/>
        <path id="Path_51968" data-name="Path 51968" d="M88.745,66.994l.085-.441.457-.117.144-.766h.734l-.144.766h.654L90.564,67H89.91L89.7,68.1a.7.7,0,0,0,0,.4c.043.08.128.117.271.117a1.713,1.713,0,0,0,.393-.053l-.117.633a3.153,3.153,0,0,1-.537.058.9.9,0,0,1-.681-.223.7.7,0,0,1-.128-.643l.271-1.393H88.74Z" transform="translate(-56.26 -65.271)" fill="#fff"/>
        <path id="Path_51969" data-name="Path 51969" d="M92.43,68.872l.542-2.77h.734l-.542,2.77Zm.617-3.222.128-.67h.755l-.128.67Z" transform="translate(-57.988 -64.948)" fill="#fff"/>
        <path id="Path_51970" data-name="Path 51970" d="M95.425,66.994l.085-.441.457-.117.144-.766h.734l-.144.766h.654L97.244,67H96.59l-.213,1.1a.7.7,0,0,0,0,.4c.043.08.128.117.271.117a1.713,1.713,0,0,0,.393-.053l-.117.633a3.153,3.153,0,0,1-.537.058.9.9,0,0,1-.681-.223.7.7,0,0,1-.128-.643l.271-1.393H95.42Z" transform="translate(-59.389 -65.271)" fill="#fff"/>
        <path id="Path_51971" data-name="Path 51971" d="M100.224,69.928a.848.848,0,0,1-.707-.25,1.029,1.029,0,0,1-.08-.8l.346-1.781h.734l-.319,1.616q-.1.542.319.542.447,0,.67-.654l.292-1.5h.734l-.542,2.77h-.649l-.011-.335a.97.97,0,0,1-.8.393Z" transform="translate(-61.253 -65.941)" fill="#fff"/>
        <path id="Path_51972" data-name="Path 51972" d="M105.3,66.994l.085-.441.457-.117.144-.766h.734l-.144.766h.654l-.112.564h-.654l-.213,1.1a.7.7,0,0,0,0,.4c.043.08.128.117.271.117a1.713,1.713,0,0,0,.393-.053l-.117.633a3.153,3.153,0,0,1-.537.058.9.9,0,0,1-.681-.223.7.7,0,0,1-.128-.643l.271-1.393h-.431Z" transform="translate(-64.011 -65.271)" fill="#fff"/>
        <path id="Path_51973" data-name="Path 51973" d="M110.283,69.872a1.037,1.037,0,0,1-1.175-1.441,1.915,1.915,0,0,1,.532-1.1,1.561,1.561,0,0,1,1.074-.346c.819,0,1.143.436.968,1.313l-.064.351h-1.77c-.021.388.16.58.553.58a1.743,1.743,0,0,0,.835-.239l-.027.638a1.711,1.711,0,0,1-.925.239Zm.287-2.244a.6.6,0,0,0-.409.138.91.91,0,0,0-.234.441h1.037c.074-.388-.058-.585-.393-.585Z" transform="translate(-65.777 -65.889)" fill="#fff"/>
        <path id="Path_51974" data-name="Path 51974" d="M118.014,68.844h-.734l.431-2.206H117.3l.085-.441.425-.112.053-.282a1.056,1.056,0,0,1,1.186-.883,2.686,2.686,0,0,1,.51.053l-.128.611a1.824,1.824,0,0,0-.367-.048.492.492,0,0,0-.324.1.821.821,0,0,0-.181.441h.638l-.1.564h-.649l-.431,2.206Z" transform="translate(-69.626 -64.92)" fill="#fff"/>
        <path id="Path_51975" data-name="Path 51975" d="M123.045,69.526a1.546,1.546,0,0,1-1.069.346,1.088,1.088,0,0,1-.936-.34,1.384,1.384,0,0,1-.1-1.1,1.915,1.915,0,0,1,.532-1.1,1.547,1.547,0,0,1,1.069-.346,1.1,1.1,0,0,1,.936.346,1.384,1.384,0,0,1,.106,1.1A1.951,1.951,0,0,1,123.045,69.526Zm-1.345-1.1a1.02,1.02,0,0,0,.016.611.393.393,0,0,0,.393.191.575.575,0,0,0,.463-.191,1.291,1.291,0,0,0,.25-.611,1.035,1.035,0,0,0-.016-.617.389.389,0,0,0-.388-.191.594.594,0,0,0-.468.191A1.29,1.29,0,0,0,121.7,68.431Z" transform="translate(-71.314 -65.889)" fill="#fff"/>
        <path id="Path_51976" data-name="Path 51976" d="M127.194,69.823h-.734l.542-2.77h.659l-.011.372a1.072,1.072,0,0,1,.829-.415,1.423,1.423,0,0,1,.314.043l-.245.718a1.21,1.21,0,0,0-.287-.043c-.356,0-.622.261-.813.776l-.255,1.313Z" transform="translate(-73.926 -65.899)" fill="#fff"/>
        <path id="Path_51977" data-name="Path 51977" d="M133.935,65.645l.128-.665h3.185l-.128.665h-1.2l-.627,3.227H134.5l.627-3.227h-1.2Z" transform="translate(-77.424 -64.948)" fill="#fff"/>
        <path id="Path_51978" data-name="Path 51978" d="M139.864,69.823h-.734l.542-2.77h.659l-.011.372a1.072,1.072,0,0,1,.829-.415,1.423,1.423,0,0,1,.314.043l-.245.718a1.21,1.21,0,0,0-.287-.043c-.356,0-.622.261-.813.776l-.255,1.313Z" transform="translate(-79.86 -65.899)" fill="#fff"/>
        <path id="Path_51979" data-name="Path 51979" d="M144.064,69.876a.826.826,0,0,1-.643-.207.728.728,0,0,1-.1-.643c.09-.457.468-.728,1.127-.819.3-.032.521-.053.681-.058l.016-.085a.324.324,0,0,0-.058-.314.56.56,0,0,0-.378-.09,1.491,1.491,0,0,0-.383.058,1.845,1.845,0,0,0-.335.117l-.122.058-.016-.622A2.647,2.647,0,0,1,145,67c.728,0,1.031.319.914.952l-.367,1.877h-.59l-.064-.255a1.175,1.175,0,0,1-.835.308Zm.027-.877c-.048.239.053.356.308.356a.574.574,0,0,0,.393-.16.665.665,0,0,0,.218-.388l.043-.223c-.064,0-.218.021-.468.048-.287.037-.452.16-.489.362Z" transform="translate(-81.811 -65.894)" fill="#fff"/>
        <path id="Path_51980" data-name="Path 51980" d="M148.77,68.872l.542-2.77h.734l-.542,2.77Zm.617-3.222.128-.67h.755l-.128.67Z" transform="translate(-84.374 -64.948)" fill="#fff"/>
        <path id="Path_51981" data-name="Path 51981" d="M151.5,69.808l.542-2.77h.649l.011.33a.938.938,0,0,1,.8-.388.855.855,0,0,1,.707.25,1.029,1.029,0,0,1,.08.8l-.346,1.781h-.734l.314-1.616a.593.593,0,0,0-.027-.415.311.311,0,0,0-.287-.128q-.455,0-.67.654l-.292,1.5h-.734Z" transform="translate(-85.653 -65.885)" fill="#fff"/>
        <path id="Path_51982" data-name="Path 51982" d="M157.42,68.872l.542-2.77h.734l-.542,2.77Zm.617-3.222.128-.67h.755l-.128.67Z" transform="translate(-88.425 -64.948)" fill="#fff"/>
        <path id="Path_51983" data-name="Path 51983" d="M160.14,69.808l.542-2.77h.649l.011.33a.938.938,0,0,1,.8-.388.855.855,0,0,1,.707.25,1.029,1.029,0,0,1,.08.8l-.346,1.781h-.734l.314-1.616a.593.593,0,0,0-.027-.415.311.311,0,0,0-.287-.128q-.455,0-.67.654l-.292,1.5h-.734Z" transform="translate(-89.699 -65.885)" fill="#fff"/>
        <path id="Path_51984" data-name="Path 51984" d="M166.81,70.989a1.643,1.643,0,0,1-1.01-.271l.223-.638a1.589,1.589,0,0,0,.4.191,1.454,1.454,0,0,0,.457.08.8.8,0,0,0,.574-.191,1.171,1.171,0,0,0,.287-.643l.011-.074a1.131,1.131,0,0,1-.835.34.894.894,0,0,1-.813-.335,1.507,1.507,0,0,1-.074-1.063,2.005,2.005,0,0,1,.489-1.069,1.289,1.289,0,0,1,.941-.335.735.735,0,0,1,.707.356l.122-.3h.659l-.5,2.541a1.817,1.817,0,0,1-.532,1.074,1.673,1.673,0,0,1-1.122.335Zm-.011-2.605a.9.9,0,0,0,.027.58.429.429,0,0,0,.409.181.707.707,0,0,0,.675-.463l.106-.569a.443.443,0,0,0-.489-.489.614.614,0,0,0-.479.181,1.2,1.2,0,0,0-.25.585Z" transform="translate(-92.35 -65.885)" fill="#fff"/>
        <path id="Path_51985" data-name="Path 51985" d="M175.434,69.876a.826.826,0,0,1-.643-.207.728.728,0,0,1-.1-.643c.09-.457.468-.728,1.127-.819.3-.032.521-.053.681-.058l.016-.085a.323.323,0,0,0-.058-.314.56.56,0,0,0-.378-.09,1.491,1.491,0,0,0-.383.058,1.845,1.845,0,0,0-.335.117l-.122.058-.016-.622A2.647,2.647,0,0,1,176.37,67c.728,0,1.031.319.914.952l-.367,1.877h-.59l-.064-.255a1.175,1.175,0,0,1-.835.308Zm.027-.877c-.048.239.053.356.308.356a.574.574,0,0,0,.393-.16.665.665,0,0,0,.218-.388l.043-.223c-.064,0-.218.021-.468.048-.287.037-.452.16-.489.362Z" transform="translate(-96.502 -65.894)" fill="#fff"/>
        <path id="Path_51986" data-name="Path 51986" d="M180.14,69.808l.542-2.77h.649l.011.33a.938.938,0,0,1,.8-.388.855.855,0,0,1,.707.25,1.029,1.029,0,0,1,.08.8l-.346,1.781h-.734l.314-1.616a.593.593,0,0,0-.027-.415.311.311,0,0,0-.287-.128q-.455,0-.67.654l-.292,1.5h-.734Z" transform="translate(-99.066 -65.885)" fill="#fff"/>
        <path id="Path_51987" data-name="Path 51987" d="M187.054,68.935a.875.875,0,0,1-.813-.346,1.582,1.582,0,0,1-.064-1.1,2.043,2.043,0,0,1,.494-1.1,1.286,1.286,0,0,1,.946-.346.741.741,0,0,1,.7.346l.276-1.409h.734l-.755,3.892h-.643L187.9,68.6A1.175,1.175,0,0,1,187.054,68.935Zm.138-2.052a1.261,1.261,0,0,0-.255.611,1.02,1.02,0,0,0,.016.611.41.41,0,0,0,.4.191.678.678,0,0,0,.665-.425l.133-.7a.437.437,0,0,0-.489-.479.621.621,0,0,0-.484.191Z" transform="translate(-101.865 -64.953)" fill="#fff"/>
        <path id="Path_51988" data-name="Path 51988" d="M196.315,68.872h-1.5l.755-3.892h1.5a1.352,1.352,0,0,1,1.191.457,2.034,2.034,0,0,1,.117,1.494,2.671,2.671,0,0,1-.7,1.489,1.965,1.965,0,0,1-1.372.452Zm-.085-3.227-.5,2.563h.564a1.144,1.144,0,0,0,.835-.3,1.886,1.886,0,0,0,.436-.978,1.411,1.411,0,0,0-.053-.989.779.779,0,0,0-.723-.3h-.564Z" transform="translate(-105.936 -64.948)" fill="#fff"/>
        <path id="Path_51989" data-name="Path 51989" d="M203.183,69.872a1.037,1.037,0,0,1-1.175-1.441,1.915,1.915,0,0,1,.532-1.1,1.561,1.561,0,0,1,1.074-.346c.819,0,1.143.436.968,1.313l-.064.351h-1.77c-.021.388.16.58.553.58a1.743,1.743,0,0,0,.835-.239l-.027.638A1.711,1.711,0,0,1,203.183,69.872Zm.287-2.244a.6.6,0,0,0-.409.138.91.91,0,0,0-.234.441h1.037c.074-.388-.058-.585-.393-.585Z" transform="translate(-109.285 -65.889)" fill="#fff"/>
        <path id="Path_51990" data-name="Path 51990" d="M207.755,67.1h.744l.239,1.988,1.01-1.988h.744l-1.462,2.77h-.9l-.383-2.77Z" transform="translate(-111.996 -65.941)" fill="#fff"/>
        <path id="Path_51991" data-name="Path 51991" d="M213.953,69.872a1.037,1.037,0,0,1-1.175-1.441,1.915,1.915,0,0,1,.532-1.1,1.561,1.561,0,0,1,1.074-.346c.819,0,1.143.436.968,1.313l-.064.351h-1.77c-.021.388.16.58.553.58a1.743,1.743,0,0,0,.835-.239l-.027.638a1.711,1.711,0,0,1-.925.239Zm.287-2.244a.6.6,0,0,0-.409.138.911.911,0,0,0-.234.441h1.037c.074-.388-.058-.585-.393-.585Z" transform="translate(-114.329 -65.889)" fill="#fff"/>
        <path id="Path_51992" data-name="Path 51992" d="M218.13,68.867l.755-3.9h.734l-.755,3.9Z" transform="translate(-116.858 -64.943)" fill="#fff"/>
        <path id="Path_51993" data-name="Path 51993" d="M223.085,69.526a1.547,1.547,0,0,1-1.069.346,1.088,1.088,0,0,1-.936-.34,1.384,1.384,0,0,1-.1-1.1,1.915,1.915,0,0,1,.532-1.1,1.547,1.547,0,0,1,1.069-.346,1.1,1.1,0,0,1,.936.346,1.384,1.384,0,0,1,.106,1.1A1.951,1.951,0,0,1,223.085,69.526Zm-1.345-1.1a1.02,1.02,0,0,0,.016.611.393.393,0,0,0,.393.191.575.575,0,0,0,.463-.191,1.291,1.291,0,0,0,.25-.611,1.035,1.035,0,0,0-.016-.617.389.389,0,0,0-.388-.191.594.594,0,0,0-.468.191A1.29,1.29,0,0,0,221.74,68.431Z" transform="translate(-118.165 -65.889)" fill="#fff"/>
        <path id="Path_51994" data-name="Path 51994" d="M226.08,70.946l.755-3.9h.659l.011.3a1.109,1.109,0,0,1,.845-.362.886.886,0,0,1,.813.346,1.584,1.584,0,0,1,.069,1.1,2.044,2.044,0,0,1-.494,1.1,1.286,1.286,0,0,1-.946.346.773.773,0,0,1-.7-.319l-.276,1.393h-.734Zm1.287-2.839-.133.7c.021.287.191.425.505.425a.6.6,0,0,0,.478-.191,1.238,1.238,0,0,0,.255-.611.971.971,0,0,0-.021-.611.41.41,0,0,0-.4-.191.7.7,0,0,0-.681.479Z" transform="translate(-120.581 -65.889)" fill="#fff"/>
        <path id="Path_51995" data-name="Path 51995" d="M233.244,69.808h-.734l.537-2.77h.654l.011.292a.861.861,0,0,1,.7-.351c.431,0,.681.154.739.463a.941.941,0,0,1,.808-.463.74.74,0,0,1,.654.25,1.062,1.062,0,0,1,.069.8l-.351,1.781H235.6l.319-1.616a.737.737,0,0,0-.005-.415.251.251,0,0,0-.25-.122c-.25,0-.447.218-.579.654l-.292,1.5h-.734l.314-1.616a.68.68,0,0,0-.011-.415.251.251,0,0,0-.25-.122c-.245,0-.431.213-.564.633l-.3,1.526Z" transform="translate(-123.592 -65.885)" fill="#fff"/>
        <path id="Path_51996" data-name="Path 51996" d="M242.343,69.872a1.037,1.037,0,0,1-1.175-1.441,1.915,1.915,0,0,1,.532-1.1,1.561,1.561,0,0,1,1.074-.346c.819,0,1.143.436.968,1.313l-.064.351h-1.77c-.021.388.16.58.553.58a1.743,1.743,0,0,0,.835-.239l-.027.638a1.711,1.711,0,0,1-.925.239Zm.287-2.244a.6.6,0,0,0-.409.138.91.91,0,0,0-.234.441h1.037c.074-.388-.058-.585-.393-.585Z" transform="translate(-127.625 -65.889)" fill="#fff"/>
        <path id="Path_51997" data-name="Path 51997" d="M246.51,69.808l.542-2.77h.649l.011.33a.938.938,0,0,1,.8-.388.855.855,0,0,1,.707.25,1.029,1.029,0,0,1,.08.8l-.346,1.781h-.734l.314-1.616a.593.593,0,0,0-.027-.415.311.311,0,0,0-.287-.128q-.455,0-.67.654l-.292,1.5h-.734Z" transform="translate(-130.149 -65.885)" fill="#fff"/>
        <path id="Path_51998" data-name="Path 51998" d="M252.7,66.994l.085-.441.457-.117.144-.766h.734l-.144.766h.654l-.112.564h-.654l-.213,1.1a.7.7,0,0,0,0,.4c.043.08.128.117.271.117a1.713,1.713,0,0,0,.393-.053l-.117.633a3.153,3.153,0,0,1-.537.058.9.9,0,0,1-.681-.223.7.7,0,0,1-.128-.643l.271-1.393h-.431Z" transform="translate(-133.043 -65.271)" fill="#fff"/>
      </g>
      <path id="Path_51999" data-name="Path 51999" d="M26.276,16.183l-.962-1.951-2.153-.314L24.718,12.4l-.367-2.143,1.925,1.01L28.2,10.26,27.833,12.4l1.558,1.515-2.153.314Z" transform="translate(-10.851 -4.805)" fill="#ffd23b"/>
      <path id="Path_52000" data-name="Path 52000" d="M15.983,21.129l-1.4-.92-1.547.633.441-1.616L12.4,17.949l1.669-.08.883-1.42.59,1.563,1.622.4-1.3,1.042Z" transform="translate(-5.812 -7.704)" fill="#ffd23b"/>
      <path id="Path_52001" data-name="Path 52001" d="M5.322,27.221l-1.207-.266-.9.845-.122-1.228-1.079-.6,1.127-.494.234-1.212.824.92,1.223-.154L4.8,26.1Z" transform="translate(-0.946 -11.366)" fill="#ffd23b"/>
    </g>
  </g>
</svg>
