<svg xmlns="http://www.w3.org/2000/svg" width="28.944" height="20.029" viewBox="0 0 28.944 20.029">
  <g id="Group_37501" data-name="Group 37501" transform="translate(0)">
    <path id="Path_1_" d="M96.344,18.392a1.781,1.781,0,0,1-1.737,1.737H69.137A1.781,1.781,0,0,1,67.4,18.392V1.837A1.682,1.682,0,0,1,69.021.1H94.607a1.781,1.781,0,0,1,1.737,1.737h0Z" transform="translate(-67.4 -0.1)" fill="#003ba4"/>
    <path id="Path-2_1_" d="M74.552,9.657l-.579-2.894c0-.347-.463-.463-.695-.463H70.5v.116A5.706,5.706,0,0,1,74.552,9.657Z" transform="translate(-66.911 0.878)" fill="#f79f1a"/>
    <path id="Path-3_1_" d="M67.294.6H65.558L64.4,7.083h1.737Z" transform="translate(-53.206 6.678)" fill="#fff"/>
    <path id="Path-4_1_" d="M62.773,6.983,65.552.5H63.7L61.963,4.9,61.731,4.2A7.629,7.629,0,0,0,59.3,1.542l1.621,5.326Z" transform="translate(-54.01 6.662)" fill="#fff"/>
    <path id="Path-5_1_" d="M71.894,5.015c0-.695-.463-1.274-1.505-1.737-.579-.347-1.042-.463-1.042-.81s.347-.463,1.042-.463a4.162,4.162,0,0,1,1.274.232h.232L72.01.847A3.7,3.7,0,0,0,70.389.5c-1.737,0-2.894.926-2.894,2.084,0,.926.926,1.389,1.505,1.737.695.347.926.463.926.81,0,.463-.463.579-1.042.579a3.7,3.7,0,0,1-1.621-.347l-.232-.116L66.8,6.636a5.408,5.408,0,0,0,1.968.347C70.621,7.1,71.894,6.289,71.894,5.015Z" transform="translate(-52.827 6.662)" fill="#fff"/>
    <path id="Shape_1_" d="M72.952,6.972H71.1l2.663-5.9A.732.732,0,0,1,74.689.6h1.274l1.389,6.483H75.731A3.381,3.381,0,0,1,75.5,6.045H73.3Zm1.737-4.631c-.116.232-.232.347-.232.463V2.92s-.579,1.389-.695,1.852h1.389L74.8,2.92Z" transform="translate(-52.149 6.673)" fill="#fff"/>
  </g>
</svg>
